<?xml version="1.0" standalone="no"?>
<!DOCTYPE svg PUBLIC "-//W3C//DTD SVG 20010904//EN"
 "http://www.w3.org/TR/2001/REC-SVG-20010904/DTD/svg10.dtd">
<svg version="1.0" xmlns="http://www.w3.org/2000/svg"
 width="133.000000pt" height="133.000000pt" viewBox="0 0 133.000000 133.000000"
 preserveAspectRatio="xMidYMid meet">

<g transform="translate(0.000000,133.000000) scale(0.100000,-0.100000)"
fill="#ffc6c6" stroke="none">
<path d="M540 1291 c-155 -38 -261 -98 -354 -202 -248 -276 -206 -723 88 -944
91 -67 140 -92 233 -116 278 -71 565 44 721 288 66 103 87 186 87 338 0 150
-19 226 -82 335 -136 233 -438 364 -693 301z m115 -91 c-10 -17 17 -22 33 -7
16 14 19 13 41 -9 13 -14 30 -23 38 -20 7 3 13 2 13 -3 0 -7 27 -19 46 -19 3
-1 12 -9 20 -19 7 -10 14 -14 14 -8 0 5 7 -1 16 -13 8 -12 20 -19 26 -16 6 4
8 2 4 -4 -3 -6 5 -19 19 -31 15 -11 25 -22 23 -25 -2 -3 5 -14 14 -25 9 -11
14 -22 11 -25 -4 -3 -2 -6 3 -6 6 0 11 -21 13 -47 1 -26 4 -50 7 -55 14 -22
-10 -3 -47 37 -70 76 -151 80 -219 10 -22 -22 -43 -35 -60 -35 -17 0 -38 13
-60 35 -69 71 -150 66 -221 -13 l-42 -47 7 55 c4 30 7 61 8 68 1 6 5 12 10 12
5 0 6 5 3 10 -3 6 -1 10 5 10 6 0 9 4 6 9 -4 5 -2 11 3 13 4 1 26 24 49 50 22
26 43 44 46 41 3 -4 6 -1 6 6 0 7 5 9 10 6 6 -3 10 -2 10 2 0 5 10 10 22 10
13 1 24 7 26 12 2 5 10 7 18 4 8 -3 14 0 14 6 0 6 6 11 14 11 8 0 17 12 20 26
6 21 9 24 21 14 8 -7 13 -16 10 -20z m-83 -284 c29 -18 51 -74 44 -111 -16
-82 -128 -115 -187 -56 -53 54 -35 146 35 177 32 14 77 10 108 -10z m295 14
c8 0 28 -13 44 -29 24 -24 29 -38 29 -76 0 -38 -5 -52 -29 -76 -24 -24 -38
-29 -76 -29 -65 0 -105 39 -105 102 0 24 7 54 16 67 19 26 72 53 92 46 8 -3
20 -5 29 -5z m-173 -136 c16 -44 45 -82 68 -90 41 -13 10 -13 -40 0 -44 12
-60 12 -104 0 -29 -7 -54 -11 -57 -9 -2 3 1 5 8 5 13 0 71 59 71 72 0 3 5 19
10 33 12 33 30 28 44 -11z m-291 -60 c17 -19 46 -39 69 -46 l40 -12 -67 -13
c-87 -18 -95 -12 -94 76 0 55 2 63 12 47 7 -11 25 -34 40 -52z m589 -1 c-2
-38 -7 -72 -12 -77 -5 -5 -38 -3 -76 5 l-67 13 34 14 c41 17 76 47 95 85 23
43 29 32 26 -40z m-285 -131 c77 5 85 -4 27 -28 -47 -20 -90 -17 -135 8 -49
28 -50 39 -2 26 21 -6 70 -8 110 -6z"/>
<path d="M466 885 c-39 -36 -33 -116 9 -115 5 0 2 5 -7 11 -39 22 -9 109 37
109 49 0 81 -66 50 -100 -10 -11 -13 -20 -7 -20 15 0 32 33 32 60 0 24 -51 80
-73 80 -8 0 -26 -11 -41 -25z"/>
<path d="M478 846 c-15 -35 -4 -56 31 -56 31 0 45 19 34 48 -14 38 -49 42 -65
8z m42 4 c0 -5 -5 -10 -11 -10 -5 0 -7 5 -4 10 3 6 8 10 11 10 2 0 4 -4 4 -10z"/>
<path d="M804 895 c-31 -21 -48 -68 -34 -94 6 -12 16 -21 23 -20 9 0 9 2 0 6
-7 2 -13 19 -13 37 0 37 25 66 57 66 33 0 69 -54 57 -85 -10 -25 -24 -17 -24
14 0 59 -61 66 -68 7 -3 -21 1 -26 18 -26 12 0 31 -5 42 -11 52 -28 62 61 11
101 -31 24 -42 25 -69 5z m46 -45 c0 -5 -4 -10 -10 -10 -5 0 -10 5 -10 10 0 6
5 10 10 10 6 0 10 -4 10 -10z"/>
</g>
</svg>
